<svg width="365" height="131" viewBox="0 0 365 131" fill="none" xmlns="http://www.w3.org/2000/svg">
<path d="M8 0C3.58172 -1.93129e-07 1.93129e-07 3.58172 0 8C-1.93129e-07 12.4183 3.58172 16 8 16C12.4183 16 16 12.4183 16 8C16 3.58172 12.4183 1.93129e-07 8 0ZM6.49999 123L6.49999 124.5L9.49999 124.5L9.49999 123L7.99999 123L6.49999 123ZM8 8L6.5 8L6.49999 123L7.99999 123L9.49999 123L9.5 8L8 8Z" fill="#3FB1F2"/>
<rect opacity="0.2" x="8" y="8" width="349" height="115" fill="#3FB1F2"/>
<path d="M358.5 8L358.5 6.5L355.5 6.5L355.5 8L357 8L358.5 8ZM357 115C352.582 115 349 118.582 349 123C349 127.418 352.582 131 357 131C361.418 131 365 127.418 365 123C365 118.582 361.418 115 357 115ZM357 8L355.5 8L355.5 123L357 123L358.5 123L358.5 8L357 8Z" fill="#3FB1F2"/>
</svg>
