<svg preserveAspectRatio="none" width="100%" height="100%" overflow="visible" style="display: block;" viewBox="0 0 14 11.9981" fill="none" xmlns="http://www.w3.org/2000/svg">
<path id="Vector" d="M0.5 6.49934C0.223939 6.49934 0.000131627 6.27537 0 5.99934C1.20706e-08 5.7232 0.223858 5.49934 0.5 5.49934L12.2148 5.49934L7.16211 0.868485C6.95855 0.681908 6.94527 0.366002 7.13184 0.16243C7.31842 -0.0411415 7.63432 -0.0554023 7.83789 0.13118L13.8379 5.6302C13.9412 5.72491 14 5.85918 14 5.99934C13.9999 6.13936 13.9411 6.27286 13.8379 6.36751L7.83789 11.8665L7.75684 11.9271C7.55742 12.0468 7.2952 12.0143 7.13184 11.8363C6.94533 11.6328 6.95877 11.3168 7.16211 11.1302L12.2139 6.49934L0.5 6.49934Z" fill="var(--fill-0, #383836)"/>
</svg>
